/* XPM */
static char *_624704901440[] = {
/* columns rows colors chars-per-pixel */
"64 64 4 1 ",
"  c #181B1D",
". c #1A1A1C",
"X c #906014",
"o c white",
/* pixels */
"oooooooooooooooooooooooooooooooooooooooooooooooooooooooooooooooo",
"oooooooooooooooooooooooooooooooooooooooooooooooooooooooooooooooo",
"oooooooooooooooooooooooooooooooooooooooooooooooooooooooooooooooo",
"oooooooooooooooooooooooooooooooooooooooooooooooooooooooooooooooo",
"oooooooooooo    ................................    oooooooooooo",
"oooooooooooo    ................................    oooooooooooo",
"oooooooooooo    ................................    oooooooooooo",
"oooooooooooo    ................................    oooooooooooo",
"oooooooo     ...oooooooooooooooooooooooooooooooo....    oooooooo",
"oooooooo     ...oooooooooooooooooooooooooooooooo....    oooooooo",
"oooooooo    ....oooooooooooooooooooooooooooooooo....    oooooooo",
"oooooooo    ....oooooooooooooooooooooooooooooooo....    oooooooo",
"oooo    ................................................    oooo",
"oooo    ................................................    oooo",
"oooo    ................................................    oooo",
"oooo    ................................................    oooo",
"oooo........XXXXXXXXXXXXXXXXXXXXXXXXXXXXXXXXXXXXXXXX........oooo",
"oooo........XXXXXXXXXXXXXXXXXXXXXXXXXXXXXXXXXXXXXXXX........oooo",
"oooo........XXXXXXXXXXXXXXXXXXXXXXXXXXXXXXXXXXXXXXXX........oooo",
"oooo........XXXXXXXXXXXXXXXXXXXXXXXXXXXXXXXXXXXXXXXX........oooo",
"oooooooo....XXXXXXXXXXXXXXXXXXXXXXXXXXXXXXXXXXXXXXXX....oooooooo",
"oooooooo....XXXXXXXXXXXXXXXXXXXXXXXXXXXXXXXXXXXXXXXX....oooooooo",
"oooooooo....XXXXXXXXXXXXXXXXXXXXXXXXXXXXXXXXXXXXXXXX....oooooooo",
"oooooooo....XXXXXXXXXXXXXXXXXXXXXXXXXXXXXXXXXXXXXXXX....oooooooo",
"oooooooo....XXXXXXXXXXXXXXXX........XXXXXXXXXXXX........oooooooo",
"oooooooo....XXXXXXXXXXXXXXXX........XXXXXXXXXXXX........oooooooo",
"oooooooo....XXXXXXXXXXXXXXXX........XXXXXXXXXXXX........oooooooo",
"oooooooo....XXXXXXXXXXXXXXXX........XXXXXXXXXXXX........oooooooo",
"oooooooooooo....XXXXXXXX....XXXXXXXX....XXXXXXXX....oooooooooooo",
"oooooooooooo....XXXXXXXX....XXXXXXXX....XXXXXXXX....oooooooooooo",
"oooooooooooo....XXXXXXXX....XXXXXXXX....XXXXXXXX....oooooooooooo",
"oooooooooooo....XXXXXXXX....XXXXXXXX....XXXXXXXX....oooooooooooo",
"oooooooooooo....XXXXXXXX....XXXXXXXXXXXXXXXXXXXX....oooooooooooo",
"oooooooooooo....XXXXXXXX....XXXXXXXXXXXXXXXXXXXX....oooooooooooo",
"oooooooooooo....XXXXXXXX....XXXXXXXXXXXXXXXXXXXX....oooooooooooo",
"oooooooooooo....XXXXXXXX....XXXXXXXXXXXXXXXXXXXX....oooooooooooo",
"oooooooooooo....XXXXXXXX....XXXXXXXX....XXXX........oooooooooooo",
"oooooooooooo....XXXXXXXX....XXXXXXXX....XXXX........oooooooooooo",
"oooooooooooo....XXXXXXXX....XXXXXXXX....XXXX........oooooooooooo",
"oooooooooooo....XXXXXXXX....XXXXXXXX....XXXX........oooooooooooo",
"oooooooooooooooo....XXXXXXXX........XXXXXXXX....oooooooooooooooo",
"oooooooooooooooo....XXXXXXXX........XXXXXXXX....oooooooooooooooo",
"oooooooooooooooo....XXXXXXXX........XXXXXXXX....oooooooooooooooo",
"oooooooooooooooo....XXXXXXXX........XXXXXXXX....oooooooooooooooo",
"oooooooooooooooo....XXXXXXXXXXXXXXXXXXXXXXXX....oooooooooooooooo",
"oooooooooooooooo....XXXXXXXXXXXXXXXXXXXXXXXX....oooooooooooooooo",
"oooooooooooooooo....XXXXXXXXXXXXXXXXXXXXXXXX....oooooooooooooooo",
"oooooooooooooooo....XXXXXXXXXXXXXXXXXXXXXXXX....oooooooooooooooo",
"oooooooooooooooooooo....XXXXXXXXXXXXXXXX....oooooooooooooooooooo",
"oooooooooooooooooooo....XXXXXXXXXXXXXXXX....oooooooooooooooooooo",
"oooooooooooooooooooo....XXXXXXXXXXXXXXXX....oooooooooooooooooooo",
"oooooooooooooooooooo....XXXXXXXXXXXXXXXX....oooooooooooooooooooo",
"oooooooooooooooooooo....XXXXXXXXXXXXXXXX....oooooooooooooooooooo",
"oooooooooooooooooooo....XXXXXXXXXXXXXXXX....oooooooooooooooooooo",
"oooooooooooooooooooo....XXXXXXXXXXXXXXXX....oooooooooooooooooooo",
"oooooooooooooooooooo....XXXXXXXXXXXXXXXX....oooooooooooooooooooo",
"oooooooooooooooooooo........................oooooooooooooooooooo",
"oooooooooooooooooooo........................oooooooooooooooooooo",
"oooooooooooooooooooo........................oooooooooooooooooooo",
"oooooooooooooooooooo........................oooooooooooooooooooo",
"oooooooooooooooooooooooooooooooooooooooooooooooooooooooooooooooo",
"oooooooooooooooooooooooooooooooooooooooooooooooooooooooooooooooo",
"oooooooooooooooooooooooooooooooooooooooooooooooooooooooooooooooo",
"oooooooooooooooooooooooooooooooooooooooooooooooooooooooooooooooo"
};
