/* XPM */
static char *_624704360342[] = {
/* columns rows colors chars-per-pixel */
"128 128 4 1 ",
"  c #181B1D",
". c #1A1A1C",
"X c #906014",
"o c white",
/* pixels */
"oooooooooooooooooooooooooooooooooooooooooooooooooooooooooooooooooooooooooooooooooooooooooooooooooooooooooooooooooooooooooooooooo",
"oooooooooooooooooooooooooooooooooooooooooooooooooooooooooooooooooooooooooooooooooooooooooooooooooooooooooooooooooooooooooooooooo",
"oooooooooooooooooooooooooooooooooooooooooooooooooooooooooooooooooooooooooooooooooooooooooooooooooooooooooooooooooooooooooooooooo",
"oooooooooooooooooooooooooooooooooooooooooooooooooooooooooooooooooooooooooooooooooooooooooooooooooooooooooooooooooooooooooooooooo",
"oooooooooooooooooooooooooooooooooooooooooooooooooooooooooooooooooooooooooooooooooooooooooooooooooooooooooooooooooooooooooooooooo",
"oooooooooooooooooooooooooooooooooooooooooooooooooooooooooooooooooooooooooooooooooooooooooooooooooooooooooooooooooooooooooooooooo",
"oooooooooooooooooooooooooooooooooooooooooooooooooooooooooooooooooooooooooooooooooooooooooooooooooooooooooooooooooooooooooooooooo",
"oooooooooooooooooooooooooooooooooooooooooooooooooooooooooooooooooooooooooooooooooooooooooooooooooooooooooooooooooooooooooooooooo",
"oooooooooooooooooooooooo        ................................................................        oooooooooooooooooooooooo",
"oooooooooooooooooooooooo        ................................................................        oooooooooooooooooooooooo",
"oooooooooooooooooooooooo        ................................................................        oooooooooooooooooooooooo",
"oooooooooooooooooooooooo        ................................................................        oooooooooooooooooooooooo",
"oooooooooooooooooooooooo        ................................................................        oooooooooooooooooooooooo",
"oooooooooooooooooooooooo        ................................................................        oooooooooooooooooooooooo",
"oooooooooooooooooooooooo        ................................................................        oooooooooooooooooooooooo",
"oooooooooooooooooooooooo        ................................................................        oooooooooooooooooooooooo",
"oooooooooooooooo          ......oooooooooooooooooooooooooooooooooooooooooooooooooooooooooooooooo........        oooooooooooooooo",
"oooooooooooooooo        ........oooooooooooooooooooooooooooooooooooooooooooooooooooooooooooooooo........        oooooooooooooooo",
"oooooooooooooooo        ........oooooooooooooooooooooooooooooooooooooooooooooooooooooooooooooooo........        oooooooooooooooo",
"oooooooooooooooo        ........oooooooooooooooooooooooooooooooooooooooooooooooooooooooooooooooo........        oooooooooooooooo",
"oooooooooooooooo        ........oooooooooooooooooooooooooooooooooooooooooooooooooooooooooooooooo........        oooooooooooooooo",
"oooooooooooooooo        ........oooooooooooooooooooooooooooooooooooooooooooooooooooooooooooooooo........        oooooooooooooooo",
"oooooooooooooooo        ........oooooooooooooooooooooooooooooooooooooooooooooooooooooooooooooooo........        oooooooooooooooo",
"oooooooooooooooo        ........oooooooooooooooooooooooooooooooooooooooooooooooooooooooooooooooo........        oooooooooooooooo",
"oooooooo        ................................................................................................        oooooooo",
"oooooooo        ................................................................................................        oooooooo",
"oooooooo        ................................................................................................        oooooooo",
"oooooooo        ................................................................................................        oooooooo",
"oooooooo        ................................................................................................        oooooooo",
"oooooooo        ................................................................................................        oooooooo",
"oooooooo        ................................................................................................        oooooooo",
"oooooooo        ................................................................................................        oooooooo",
"oooooooo................XXXXXXXXXXXXXXXXXXXXXXXXXXXXXXXXXXXXXXXXXXXXXXXXXXXXXXXXXXXXXXXXXXXXXXXXXXXXXXXX................oooooooo",
"oooooooo................XXXXXXXXXXXXXXXXXXXXXXXXXXXXXXXXXXXXXXXXXXXXXXXXXXXXXXXXXXXXXXXXXXXXXXXXXXXXXXXX................oooooooo",
"oooooooo................XXXXXXXXXXXXXXXXXXXXXXXXXXXXXXXXXXXXXXXXXXXXXXXXXXXXXXXXXXXXXXXXXXXXXXXXXXXXXXXX................oooooooo",
"oooooooo................XXXXXXXXXXXXXXXXXXXXXXXXXXXXXXXXXXXXXXXXXXXXXXXXXXXXXXXXXXXXXXXXXXXXXXXXXXXXXXXX................oooooooo",
"oooooooo................XXXXXXXXXXXXXXXXXXXXXXXXXXXXXXXXXXXXXXXXXXXXXXXXXXXXXXXXXXXXXXXXXXXXXXXXXXXXXXXX................oooooooo",
"oooooooo................XXXXXXXXXXXXXXXXXXXXXXXXXXXXXXXXXXXXXXXXXXXXXXXXXXXXXXXXXXXXXXXXXXXXXXXXXXXXXXXX................oooooooo",
"oooooooo................XXXXXXXXXXXXXXXXXXXXXXXXXXXXXXXXXXXXXXXXXXXXXXXXXXXXXXXXXXXXXXXXXXXXXXXXXXXXXXXX................oooooooo",
"oooooooo................XXXXXXXXXXXXXXXXXXXXXXXXXXXXXXXXXXXXXXXXXXXXXXXXXXXXXXXXXXXXXXXXXXXXXXXXXXXXXXXX................oooooooo",
"oooooooooooooooo........XXXXXXXXXXXXXXXXXXXXXXXXXXXXXXXXXXXXXXXXXXXXXXXXXXXXXXXXXXXXXXXXXXXXXXXXXXXXXXXX........oooooooooooooooo",
"oooooooooooooooo........XXXXXXXXXXXXXXXXXXXXXXXXXXXXXXXXXXXXXXXXXXXXXXXXXXXXXXXXXXXXXXXXXXXXXXXXXXXXXXXX........oooooooooooooooo",
"oooooooooooooooo........XXXXXXXXXXXXXXXXXXXXXXXXXXXXXXXXXXXXXXXXXXXXXXXXXXXXXXXXXXXXXXXXXXXXXXXXXXXXXXXX........oooooooooooooooo",
"oooooooooooooooo........XXXXXXXXXXXXXXXXXXXXXXXXXXXXXXXXXXXXXXXXXXXXXXXXXXXXXXXXXXXXXXXXXXXXXXXXXXXXXXXX........oooooooooooooooo",
"oooooooooooooooo........XXXXXXXXXXXXXXXXXXXXXXXXXXXXXXXXXXXXXXXXXXXXXXXXXXXXXXXXXXXXXXXXXXXXXXXXXXXXXXXX........oooooooooooooooo",
"oooooooooooooooo........XXXXXXXXXXXXXXXXXXXXXXXXXXXXXXXXXXXXXXXXXXXXXXXXXXXXXXXXXXXXXXXXXXXXXXXXXXXXXXXX........oooooooooooooooo",
"oooooooooooooooo........XXXXXXXXXXXXXXXXXXXXXXXXXXXXXXXXXXXXXXXXXXXXXXXXXXXXXXXXXXXXXXXXXXXXXXXXXXXXXXXX........oooooooooooooooo",
"oooooooooooooooo........XXXXXXXXXXXXXXXXXXXXXXXXXXXXXXXXXXXXXXXXXXXXXXXXXXXXXXXXXXXXXXXXXXXXXXXXXXXXXXXX........oooooooooooooooo",
"oooooooooooooooo........XXXXXXXXXXXXXXXXXXXXXXXXXXXXXXXX................XXXXXXXXXXXXXXXXXXXXXXXX................oooooooooooooooo",
"oooooooooooooooo........XXXXXXXXXXXXXXXXXXXXXXXXXXXXXXXX................XXXXXXXXXXXXXXXXXXXXXXXX................oooooooooooooooo",
"oooooooooooooooo........XXXXXXXXXXXXXXXXXXXXXXXXXXXXXXXX................XXXXXXXXXXXXXXXXXXXXXXXX................oooooooooooooooo",
"oooooooooooooooo........XXXXXXXXXXXXXXXXXXXXXXXXXXXXXXXX................XXXXXXXXXXXXXXXXXXXXXXXX................oooooooooooooooo",
"oooooooooooooooo........XXXXXXXXXXXXXXXXXXXXXXXXXXXXXXXX................XXXXXXXXXXXXXXXXXXXXXXXX................oooooooooooooooo",
"oooooooooooooooo........XXXXXXXXXXXXXXXXXXXXXXXXXXXXXXXX................XXXXXXXXXXXXXXXXXXXXXXXX................oooooooooooooooo",
"oooooooooooooooo........XXXXXXXXXXXXXXXXXXXXXXXXXXXXXXXX................XXXXXXXXXXXXXXXXXXXXXXXX................oooooooooooooooo",
"oooooooooooooooo........XXXXXXXXXXXXXXXXXXXXXXXXXXXXXXXX................XXXXXXXXXXXXXXXXXXXXXXXX................oooooooooooooooo",
"oooooooooooooooooooooooo........XXXXXXXXXXXXXXXX........XXXXXXXXXXXXXXXX........XXXXXXXXXXXXXXXX........oooooooooooooooooooooooo",
"oooooooooooooooooooooooo........XXXXXXXXXXXXXXXX........XXXXXXXXXXXXXXXX........XXXXXXXXXXXXXXXX........oooooooooooooooooooooooo",
"oooooooooooooooooooooooo........XXXXXXXXXXXXXXXX........XXXXXXXXXXXXXXXX........XXXXXXXXXXXXXXXX........oooooooooooooooooooooooo",
"oooooooooooooooooooooooo........XXXXXXXXXXXXXXXX........XXXXXXXXXXXXXXXX........XXXXXXXXXXXXXXXX........oooooooooooooooooooooooo",
"oooooooooooooooooooooooo........XXXXXXXXXXXXXXXX........XXXXXXXXXXXXXXXX........XXXXXXXXXXXXXXXX........oooooooooooooooooooooooo",
"oooooooooooooooooooooooo........XXXXXXXXXXXXXXXX........XXXXXXXXXXXXXXXX........XXXXXXXXXXXXXXXX........oooooooooooooooooooooooo",
"oooooooooooooooooooooooo........XXXXXXXXXXXXXXXX........XXXXXXXXXXXXXXXX........XXXXXXXXXXXXXXXX........oooooooooooooooooooooooo",
"oooooooooooooooooooooooo........XXXXXXXXXXXXXXXX........XXXXXXXXXXXXXXXX........XXXXXXXXXXXXXXXX........oooooooooooooooooooooooo",
"oooooooooooooooooooooooo........XXXXXXXXXXXXXXXX........XXXXXXXXXXXXXXXXXXXXXXXXXXXXXXXXXXXXXXXX........oooooooooooooooooooooooo",
"oooooooooooooooooooooooo........XXXXXXXXXXXXXXXX........XXXXXXXXXXXXXXXXXXXXXXXXXXXXXXXXXXXXXXXX........oooooooooooooooooooooooo",
"oooooooooooooooooooooooo........XXXXXXXXXXXXXXXX........XXXXXXXXXXXXXXXXXXXXXXXXXXXXXXXXXXXXXXXX........oooooooooooooooooooooooo",
"oooooooooooooooooooooooo........XXXXXXXXXXXXXXXX........XXXXXXXXXXXXXXXXXXXXXXXXXXXXXXXXXXXXXXXX........oooooooooooooooooooooooo",
"oooooooooooooooooooooooo........XXXXXXXXXXXXXXXX........XXXXXXXXXXXXXXXXXXXXXXXXXXXXXXXXXXXXXXXX........oooooooooooooooooooooooo",
"oooooooooooooooooooooooo........XXXXXXXXXXXXXXXX........XXXXXXXXXXXXXXXXXXXXXXXXXXXXXXXXXXXXXXXX........oooooooooooooooooooooooo",
"oooooooooooooooooooooooo........XXXXXXXXXXXXXXXX........XXXXXXXXXXXXXXXXXXXXXXXXXXXXXXXXXXXXXXXX........oooooooooooooooooooooooo",
"oooooooooooooooooooooooo........XXXXXXXXXXXXXXXX........XXXXXXXXXXXXXXXXXXXXXXXXXXXXXXXXXXXXXXXX........oooooooooooooooooooooooo",
"oooooooooooooooooooooooo........XXXXXXXXXXXXXXXX........XXXXXXXXXXXXXXXX........XXXXXXXX................oooooooooooooooooooooooo",
"oooooooooooooooooooooooo........XXXXXXXXXXXXXXXX........XXXXXXXXXXXXXXXX........XXXXXXXX................oooooooooooooooooooooooo",
"oooooooooooooooooooooooo........XXXXXXXXXXXXXXXX........XXXXXXXXXXXXXXXX........XXXXXXXX................oooooooooooooooooooooooo",
"oooooooooooooooooooooooo........XXXXXXXXXXXXXXXX........XXXXXXXXXXXXXXXX........XXXXXXXX................oooooooooooooooooooooooo",
"oooooooooooooooooooooooo........XXXXXXXXXXXXXXXX........XXXXXXXXXXXXXXXX........XXXXXXXX................oooooooooooooooooooooooo",
"oooooooooooooooooooooooo........XXXXXXXXXXXXXXXX........XXXXXXXXXXXXXXXX........XXXXXXXX................oooooooooooooooooooooooo",
"oooooooooooooooooooooooo........XXXXXXXXXXXXXXXX........XXXXXXXXXXXXXXXX........XXXXXXXX................oooooooooooooooooooooooo",
"oooooooooooooooooooooooo........XXXXXXXXXXXXXXXX........XXXXXXXXXXXXXXXX........XXXXXXXX................oooooooooooooooooooooooo",
"oooooooooooooooooooooooooooooooo........XXXXXXXXXXXXXXXX................XXXXXXXXXXXXXXXX........oooooooooooooooooooooooooooooooo",
"oooooooooooooooooooooooooooooooo........XXXXXXXXXXXXXXXX................XXXXXXXXXXXXXXXX........oooooooooooooooooooooooooooooooo",
"oooooooooooooooooooooooooooooooo........XXXXXXXXXXXXXXXX................XXXXXXXXXXXXXXXX........oooooooooooooooooooooooooooooooo",
"oooooooooooooooooooooooooooooooo........XXXXXXXXXXXXXXXX................XXXXXXXXXXXXXXXX........oooooooooooooooooooooooooooooooo",
"oooooooooooooooooooooooooooooooo........XXXXXXXXXXXXXXXX................XXXXXXXXXXXXXXXX........oooooooooooooooooooooooooooooooo",
"oooooooooooooooooooooooooooooooo........XXXXXXXXXXXXXXXX................XXXXXXXXXXXXXXXX........oooooooooooooooooooooooooooooooo",
"oooooooooooooooooooooooooooooooo........XXXXXXXXXXXXXXXX................XXXXXXXXXXXXXXXX........oooooooooooooooooooooooooooooooo",
"oooooooooooooooooooooooooooooooo........XXXXXXXXXXXXXXXX................XXXXXXXXXXXXXXXX........oooooooooooooooooooooooooooooooo",
"oooooooooooooooooooooooooooooooo........XXXXXXXXXXXXXXXXXXXXXXXXXXXXXXXXXXXXXXXXXXXXXXXX........oooooooooooooooooooooooooooooooo",
"oooooooooooooooooooooooooooooooo........XXXXXXXXXXXXXXXXXXXXXXXXXXXXXXXXXXXXXXXXXXXXXXXX........oooooooooooooooooooooooooooooooo",
"oooooooooooooooooooooooooooooooo........XXXXXXXXXXXXXXXXXXXXXXXXXXXXXXXXXXXXXXXXXXXXXXXX........oooooooooooooooooooooooooooooooo",
"oooooooooooooooooooooooooooooooo........XXXXXXXXXXXXXXXXXXXXXXXXXXXXXXXXXXXXXXXXXXXXXXXX........oooooooooooooooooooooooooooooooo",
"oooooooooooooooooooooooooooooooo........XXXXXXXXXXXXXXXXXXXXXXXXXXXXXXXXXXXXXXXXXXXXXXXX........oooooooooooooooooooooooooooooooo",
"oooooooooooooooooooooooooooooooo........XXXXXXXXXXXXXXXXXXXXXXXXXXXXXXXXXXXXXXXXXXXXXXXX........oooooooooooooooooooooooooooooooo",
"oooooooooooooooooooooooooooooooo........XXXXXXXXXXXXXXXXXXXXXXXXXXXXXXXXXXXXXXXXXXXXXXXX........oooooooooooooooooooooooooooooooo",
"oooooooooooooooooooooooooooooooo........XXXXXXXXXXXXXXXXXXXXXXXXXXXXXXXXXXXXXXXXXXXXXXXX........oooooooooooooooooooooooooooooooo",
"oooooooooooooooooooooooooooooooooooooooo........XXXXXXXXXXXXXXXXXXXXXXXXXXXXXXXX........oooooooooooooooooooooooooooooooooooooooo",
"oooooooooooooooooooooooooooooooooooooooo........XXXXXXXXXXXXXXXXXXXXXXXXXXXXXXXX........oooooooooooooooooooooooooooooooooooooooo",
"oooooooooooooooooooooooooooooooooooooooo........XXXXXXXXXXXXXXXXXXXXXXXXXXXXXXXX........oooooooooooooooooooooooooooooooooooooooo",
"oooooooooooooooooooooooooooooooooooooooo........XXXXXXXXXXXXXXXXXXXXXXXXXXXXXXXX........oooooooooooooooooooooooooooooooooooooooo",
"oooooooooooooooooooooooooooooooooooooooo........XXXXXXXXXXXXXXXXXXXXXXXXXXXXXXXX........oooooooooooooooooooooooooooooooooooooooo",
"oooooooooooooooooooooooooooooooooooooooo........XXXXXXXXXXXXXXXXXXXXXXXXXXXXXXXX........oooooooooooooooooooooooooooooooooooooooo",
"oooooooooooooooooooooooooooooooooooooooo........XXXXXXXXXXXXXXXXXXXXXXXXXXXXXXXX........oooooooooooooooooooooooooooooooooooooooo",
"oooooooooooooooooooooooooooooooooooooooo........XXXXXXXXXXXXXXXXXXXXXXXXXXXXXXXX........oooooooooooooooooooooooooooooooooooooooo",
"oooooooooooooooooooooooooooooooooooooooo........XXXXXXXXXXXXXXXXXXXXXXXXXXXXXXXX........oooooooooooooooooooooooooooooooooooooooo",
"oooooooooooooooooooooooooooooooooooooooo........XXXXXXXXXXXXXXXXXXXXXXXXXXXXXXXX........oooooooooooooooooooooooooooooooooooooooo",
"oooooooooooooooooooooooooooooooooooooooo........XXXXXXXXXXXXXXXXXXXXXXXXXXXXXXXX........oooooooooooooooooooooooooooooooooooooooo",
"oooooooooooooooooooooooooooooooooooooooo........XXXXXXXXXXXXXXXXXXXXXXXXXXXXXXXX........oooooooooooooooooooooooooooooooooooooooo",
"oooooooooooooooooooooooooooooooooooooooo........XXXXXXXXXXXXXXXXXXXXXXXXXXXXXXXX........oooooooooooooooooooooooooooooooooooooooo",
"oooooooooooooooooooooooooooooooooooooooo........XXXXXXXXXXXXXXXXXXXXXXXXXXXXXXXX........oooooooooooooooooooooooooooooooooooooooo",
"oooooooooooooooooooooooooooooooooooooooo........XXXXXXXXXXXXXXXXXXXXXXXXXXXXXXXX........oooooooooooooooooooooooooooooooooooooooo",
"oooooooooooooooooooooooooooooooooooooooo........XXXXXXXXXXXXXXXXXXXXXXXXXXXXXXXX........oooooooooooooooooooooooooooooooooooooooo",
"oooooooooooooooooooooooooooooooooooooooo................................................oooooooooooooooooooooooooooooooooooooooo",
"oooooooooooooooooooooooooooooooooooooooo................................................oooooooooooooooooooooooooooooooooooooooo",
"oooooooooooooooooooooooooooooooooooooooo................................................oooooooooooooooooooooooooooooooooooooooo",
"oooooooooooooooooooooooooooooooooooooooo................................................oooooooooooooooooooooooooooooooooooooooo",
"oooooooooooooooooooooooooooooooooooooooo................................................oooooooooooooooooooooooooooooooooooooooo",
"oooooooooooooooooooooooooooooooooooooooo................................................oooooooooooooooooooooooooooooooooooooooo",
"oooooooooooooooooooooooooooooooooooooooo................................................oooooooooooooooooooooooooooooooooooooooo",
"oooooooooooooooooooooooooooooooooooooooo................................................oooooooooooooooooooooooooooooooooooooooo",
"oooooooooooooooooooooooooooooooooooooooooooooooooooooooooooooooooooooooooooooooooooooooooooooooooooooooooooooooooooooooooooooooo",
"oooooooooooooooooooooooooooooooooooooooooooooooooooooooooooooooooooooooooooooooooooooooooooooooooooooooooooooooooooooooooooooooo",
"oooooooooooooooooooooooooooooooooooooooooooooooooooooooooooooooooooooooooooooooooooooooooooooooooooooooooooooooooooooooooooooooo",
"oooooooooooooooooooooooooooooooooooooooooooooooooooooooooooooooooooooooooooooooooooooooooooooooooooooooooooooooooooooooooooooooo",
"oooooooooooooooooooooooooooooooooooooooooooooooooooooooooooooooooooooooooooooooooooooooooooooooooooooooooooooooooooooooooooooooo",
"oooooooooooooooooooooooooooooooooooooooooooooooooooooooooooooooooooooooooooooooooooooooooooooooooooooooooooooooooooooooooooooooo",
"oooooooooooooooooooooooooooooooooooooooooooooooooooooooooooooooooooooooooooooooooooooooooooooooooooooooooooooooooooooooooooooooo",
"oooooooooooooooooooooooooooooooooooooooooooooooooooooooooooooooooooooooooooooooooooooooooooooooooooooooooooooooooooooooooooooooo"
};
