/* XPM */
static char *_625126996439[] = {
/* columns rows colors chars-per-pixel */
"64 64 2 1 ",
"  c #181B1D",
". c white",
/* pixels */
"................................................................",
"................................................................",
"................................................................",
"................................................................",
"................................................................",
"................................................................",
"................................................................",
"................................................................",
"................................................................",
"................................................................",
"................................................................",
"...................                    .........................",
"................... ..................        ..................",
"................... .......................         ............",
"..................  ...............................   ..........",
".................. ..................................  .........",
".................. ................................... .........",
".................. ................................... .........",
".................. ..............................   .. .........",
".................  ...   .......................  ....  ........",
"................. ... .. ....................... .....  ..... ..",
"................. ...  . ...... ...............  ..... ...... ..",
"................. ...    ............... ...... ...... ...... ..",
"................. ...   ................ ... .. ...... ...... ..",
"................. ... ...    .. ..   ..    ..    ..... ...... ..",
"........          ... ...  .... .. . ... ......    ... .....  ..",
"........  ...... .... ... ..... .. . ..  .....  ...... ..... ...",
".......  ....... .... ... ....  .. . .. ...... ....... ..... ...",
"....... ........ ...  .............. ..    ... ....... ....  ...",
"......  ........ ............................. .......     .....",
"...... ......... ............................. ....... .........",
"...... ......... ..........................    ......  .........",
".....  ......... ........    ...............  ....... ..........",
"..... .......... ........  .     .................... ..........",
"..... .......... ........  ... .      ............... ..........",
"..... .......... ........   .. .... .     ........... ..........",
"..... .......... ..........    ...  .  ..  .......... ..........",
"................ ...........    .. .. .   ........... ..........",
"................ ..............         ............  ..........",
"...............  ................................... ...........",
"...............  ..................................  ...........",
"................                                    ............",
"............................ .......... ........................",
"............................ .......... ........................",
"............................ .......... ........................",
"............................  ......... ........................",
"............................. ......... ........................",
"............................. ......... ........................",
"............................. ......... ........................",
"............................. ......... ........................",
"............................. .......... .......................",
"............................. ..........  ......................",
"...........................  ............   ....................",
"..........................  ...............  ...................",
".........................  .....................................",
"......................... ......................................",
"................................................................",
"................................................................",
"................................................................",
"................................................................",
"................................................................",
"................................................................",
"................................................................",
"................................................................"
};
