/* XPM */
static char *_624710167898[] = {
/* columns rows colors chars-per-pixel */
"64 64 2 1 ",
"  c #181B1D",
". c white",
/* pixels */
"................................................................",
"................................................................",
"................................................................",
"................................................................",
"................................................................",
"................................................................",
"................................................................",
"............................         ...........................",
"........................                 .......................",
"......................          ..         .....................",
"....................      ..............     ...................",
"..................     ..................     ..................",
"..................   .....          .......    .................",
".................   ........................    ................",
"................  .........          .......     ...............",
"...............  .........  .................    ...............",
"..............  ..............................    ..............",
"..............  ....       ............   .....    .............",
".............  ...   .............      ........   .............",
"............   .................................    ............",
"............  ..................................     ...........",
"............  ...................................    ...........",
"...........  .........................     ......    ...........",
"...........  .......      ..........   ...  .....     ..........",
"...........  ......    ..   .......     ...  ....     ..........",
"........... ......      ...  .....      .... ....     ..........",
"........... ......      .... .....      .........     ..........",
"........... ......      ..........      .........     ..........",
"..........  ......      ..........      .........      .........",
"..........  ......      ... ......      ...  ....      .........",
"..........  .......    ..   ...... .   .    .....      .........",
"..........  .......         ......          .....      .........",
"..........  .......        ........        ......      .........",
"..........  ........     ...........       ......   .  .........",
"..........   ........   ............      .......   .  .........",
"..........   ................................ ...      .........",
"..........   ...... ......................... ...      .........",
"...........  ...... .. .....................  ...      .........",
"...........  ...... ........................ ...      ..........",
"...........  ....... ... .........   ....... ...      ..........",
"...........  ....... ... ..        .  . .... ...      ..........",
"...........  ....... ... ... . . . ...  .......      ...........",
"............  .......... ... .   . ... ........      ...........",
"............  .......... ...    .  ... ........      ...........",
"............  ..........             . .......      ............",
".............  .......... ..........   .......     .............",
".............  ...............    .... ......      .............",
"..............  ............       .........      ..............",
"..............   ...........  ..............     ...............",
"...............   .........................     ................",
"...............    .......................     .................",
"................    .....................     ..................",
".................     .................      ...................",
"...................     .............      .....................",
".....................       .....        .......................",
"...........................            .........................",
"................................................................",
"................................................................",
"................................................................",
"................................................................",
"................................................................",
"................................................................",
"................................................................",
"................................................................"
};
