/* XPM */
static char *_625557775360[] = {
/* columns rows colors chars-per-pixel */
"64 64 5 1 ",
"  c #181B1D",
". c #1A1A1C",
"X c #906014",
"o c #FFFD9C",
"O c white",
/* pixels */
"OOOOOOOOOOOOOOOOOOOOOOOOOOOOOOOOOOOOOOOOOOOOOOOOOOOOOOOOOOOOOOOO",
"OOOOOOOOOOOOOOOOOOOOOOOOOOOOOOOOOOOOOOOOOOOOOOOOOoOOOOOOOOOOOOOO",
"OOOOOOOOOOOOOOOOOOOOOOOOOOOOOOOOOOOOOOOOOOOOOOOOOoOOOOOOOOOOOOOO",
"OOOOOOOOOOOOOOOOOOOOOOOOOOOOOOOOOOOOOOOOOOOOOOOOooOOOOOOOOOOOOOO",
"OOOOOOOOOOOO    ................................oo  OOOOOOOOOOOO",
"OOOOOOOOOOOO    ................................oo  OOOOOOOOOOOO",
"OOOOOOOOOOOO    ................................oo  OOOOOOOOOOOO",
"OOOOOOOOOOOO    ................................oo  OOOOOOOOOOOO",
"OOOOOOOO     ...OOOOOOOOOOOOOOOOOOOOOOOOOOOOOOOooo..    OOOOOOOO",
"OOOOOOOO     ...OOOOOOOOOOOOOOOOOOOOOOOOOOOOOOOoooo.    OOOOOOOO",
"OOOOOOOO    ....OOOOOOOOOOOOOOOOOOOOOOOOOOOOOOooooo.    OOOOOOOO",
"OOOOOOOO    ....OOOOOOOOOOOOOOOOOOOOOOOOOOOOOOoooooo    OOOOOOOO",
"OOOO    .....................................oooooooo...    OOOO",
"OOOO    ...................................oooooooooooo.    OOOO",
"OOOO    ............................oooooooooooooooooooooooooooO",
"OOOO    ...........................ooooooooooooooooooooooooooOOO",
"OOOO........XXXXXXXXXXXXXXXXXXXXXXXXXXXXXXXXoooooooooo......OOOO",
"OOOO........XXXXXXXXXXXXXXXXXXXXXXXXXXXXXXXXXooooooo........OOOO",
"OOOO........XXXXXXXXXXXXXXXXXXXXXXXXXXXXXXXXXXoooooX........OOOO",
"OOOO........XXXXXXXXXXXXXXXXXXXXXXXXXXXXXXXXXXXoooXX........OOOO",
"OOOOOOOO....XXXXXXXXXXXXXXXXXXXXXXXXXXXXXXXXXXXXooXX....OOOOOOOO",
"OOOOOOOO....XXXXXXXXXXXXXXXXXXXXXXXXXXXXXXXXXXXXooXX....OOOOOOOO",
"OOOOOOOO....XXXXXXXXXXXXXXXXXXXXXXXXXXXXXXXXXXXXooXX....OOOOOOOO",
"OOOOOOOO....XXXXXXXXXXXXXXXXXXXXXXXXXXXXXXXXXXXXooXX....OOOOOOOO",
"OOOOOOOO....XXXXXXXXXXXXXXXX........XXXXXXXXXXXXoo......OOOOOOOO",
"OOOOOOOO....XXXXXXXXXXXXXXXX........XXXXXXXXXXXXoo......OOOOOOOO",
"OOOOOOOO....XXXXXXXXXXXXXXXX........XXXXXXXXXXXXo.......OOOOOOOO",
"OOOOOOOO....XXXXXXXXXXXXXXXX........XXXXXXXXXXXXo.......OOOOOOOO",
"OOOOOOOOOOOO....XXXXXXXX....XXXXXXXX....XXXXXXXXo...OOOOOOOOOOOO",
"OOOOOOOOOOOO....XXXXXXXX....XXXXXXXX....XXXXXXXX....OOOOOOOOOOOO",
"OOOOOOOOOOOO....XXXXXXXX....XXXXXXXX....XXXXXXXX....OOOOOOOOOOOO",
"OOOOOOOOOOOO....XXXXXXXX....XXXXXXXX....XXXXXXXX....OOOOOOOOOOOO",
"OOOOOOOOOOOO....XXoXXXXX....XXXXXXXXXXXXXXXXXXXX....OOOOOOOOOOOO",
"OOOOOOOOOOOO....XXoXXXXX....XXXXXXXXXXXXXXXXXXXX....OOOOOOOOOOOO",
"OOOOOOOOOOOO....XXoXXXXX....XXXXXXXXXXXXXXXXXXXX....OOOOOOOOOOOO",
"OOOOOOOOOOOO....XooXXXXX....XXXXXXXXXXXXXXXXXXXX....OOOOOOOOOOOO",
"OOOOOOOOOOOO....ooooXXXX....XXXXXXXX....XXXX........OOOOOOOOOOOO",
"OOOOOOOOOOOO.ooooooooXXX....XXXXXXXX....XXXX........OOOOOOOOOOOO",
"OOOOOOOOOOOO....oooooooo....XXXXXXXX....XXXX........OOOOOOOOOOOO",
"OOOOOOOOOOOO....XoooXXXX....XXXXXXXX....XXXX........OOOOOOOOOOOO",
"OOOOOOOOOOOOOOOO..o.XXXXXXXX........XXXXXXXX....OOOOOOOOOOOOOOOO",
"OOOOOOOOOOOOOOOO..o.XXXXXXXX........XXXXXXXX....OOOOOOOOOOOOOOOO",
"OOOOOOOOOOOOOOOO..o.XXXXXXXX........XXXXXXXX....OOOOOOOOOOOOOOOO",
"OOOOOOOOOOOOOOOO....XXXXXXXX........XXXXXXXX....OOOOOOOOOOOOOOOO",
"OOOOOOOOOOOOOOOO....XXXXXXXXXXXXXXXXXXXXXXXX....OOOOOOOOOOOOOOOO",
"OOOOOOOOOOOOOOOO....XXXXXXXXXXXXXXXXXXXXXXXX....OOOOOOOOOOOOOOOO",
"OOOOOOOOOOOOOOOO....XXXXXXXXXXXXXXXXXXXXXXXX....OOOOOOOOOOOOOOOO",
"OOOOOOOOOOOOOOOO....XXXXXXXXXXXXXXXXXXXXXXXX....OOOOOOOOOOOOOOOO",
"OOOOOOOOOOOOOOOOOOOO....XXXXXXXXXXXXXXXX....OOOOOOOOOOOOOOOOOOOO",
"OOOOOOOOOOOOOOOOOOOO....XXXXXXXXXXXXXXXX....OOOOOOOOOOOOOOOOOOOO",
"OOOOOOOOOOOOOOOOOOOO....XXXXXXXXXXXXXXXX....OOOOOOOOOOOOOOOOOOOO",
"OOOOOOOOOOOOOOOOOOOO....XXXXXXXXXXXXXXXX....OOOOOOOOOOOOOOOOOOOO",
"OOOOOOOOOOOOOOOOOOOO....XXXXXXXXXXXXXXXX....OOOOOOOOOOOOOOOOOOOO",
"OOOOOOOOOOOOOOOOOOOO....XXXXXXXXXXXXXXXX....OOOOOOOOOOOOOOOOOOOO",
"OOOOOOOOOOOOOOOOOOOO....XXXXXXXXXXXXXXXX....OOOOOOOOOOOOOOOOOOOO",
"OOOOOOOOOOOOOOOOOOOO....XXXXXXXXXXXXXXXX....OOOOOOOOOOOOOOOOOOOO",
"OOOOOOOOOOOOOOOOOOOO........................OOOOOOOOOOOOOOOOOOOO",
"OOOOOOOOOOOOOOOOOOOO........................OOOOOOOOOOOOOOOOOOOO",
"OOOOOOOOOOOOOOOOOOOO........................OOOOOOOOOOOOOOOOOOOO",
"OOOOOOOOOOOOOOOOOOOO........................OOOOOOOOOOOOOOOOOOOO",
"OOOOOOOOOOOOOOOOOOOOOOOOOOOOOOOOOOOOOOOOOOOOOOOOOOOOOOOOOOOOOOOO",
"OOOOOOOOOOOOOOOOOOOOOOOOOOOOOOOOOOOOOOOOOOOOOOOOOOOOOOOOOOOOOOOO",
"OOOOOOOOOOOOOOOOOOOOOOOOOOOOOOOOOOOOOOOOOOOOOOOOOOOOOOOOOOOOOOOO",
"OOOOOOOOOOOOOOOOOOOOOOOOOOOOOOOOOOOOOOOOOOOOOOOOOOOOOOOOOOOOOOOO"
};
