/* XPM */
static char *_625129476811[] = {
/* columns rows colors chars-per-pixel */
"64 64 16 1 ",
"  c black",
". c #67474B",
"X c #67484B",
"o c #787773",
"O c #94666C",
"+ c #8F8565",
"@ c #56CE90",
"# c #B98087",
"$ c #AEAEAE",
"% c #E49EA7",
"& c #E4D5A3",
"* c #869FCE",
"= c #CECECE",
"- c #DADADA",
"; c #E1DFD8",
": c white",
/* pixels */
"================================================================",
"-----===========-------============-----=====::======-----=:::::",
"-::---------------::::::::------------::::::::::--------::::::::",
"::::::----------::::::::::-----------:::::::::::--------::::::::",
":::::-----------::::::::::------------::::::--------------------",
"---::-----------------------------------------------------------",
"$$$$$$$$$$$$$$$$$$$$$$$$$$$$$$$$$$$$$$$$$$$$$$$$$$$$$$$$$$$$$$$$",
"$$$$$$$$$$$$$$$$$$$$$$$$$$$$$$$$$$$$$$$$$$$$$$$$$$$$$$$$$$$$$$$$",
"$$$$$$::::::::::$$$$$$$$$$$$:::::::::::$$$$$$$$$$:::::::::::$$$$",
"======::::::::::$$$$$=======:::::::::::$$$$$=====:::::::::::$$$$",
"================================================================",
"==============#################===========##################====",
"@@@@@:::::****:::::::::::::::::*:::::::::*::::::::::::::::::*:::",
"@@@@@:::::*****::::::::::::::**:::::::::::**::::::::::::::***:::",
"@@@@@:::::*****:.O###%#####OX**:::::::::::**XO####%#####OX***:::",
"@@@@@:::::*****:.O###%#####OX**:::::::::::**XO####%#####OX***:::",
"@@@@@:::::*****:.O###%#####OX**:::::::::::**XO####%#####OX***:::",
"@@@@@:::::*****:.O###%#####OX**:::::::::::**XO####%#####OX***:::",
"@@@@@:::::*****:.O###%#####OX**:::::::::::**XO####%#####OX***:::",
"@@@@@:::::*****:.O###%#####OX**:::::::::::**XO####%#####OX***:::",
"@@@@@:::::*****:.O###%#####OX**:::::::::::**XO####%#####OX***:::",
"@@@@@:::::*****:.O###%#####OX**:::::::::::**XO####%#####OX***:::",
"@@@@@:::::*****:.O###%#####OX**:::::::::::**XO####%#####OX***:::",
"@@@@@:::::*****:.O###%#####OX**:::::::::::**XO####%#####OX***:::",
"@@@@@:::::*****:.O###%#####OX**:::::::::::**XO####%#####OX***:::",
"@@@@@:::::*****:.O###%#####OX**:::::::::::**XO####%#####OX***:::",
"@@@@@:::::*****:.O###%#####OX**:::::::::::**XO####%#####OX***:::",
"@@@@@:::::*****:.O###%#####OX**:::::::::::**XO####%#####OX***:::",
"@@@@@:::::*****:.O###%#####OX**:::::::::::**XO####%#####OX***:::",
"@@@@@:::::*****:.O###%#####OX**::                #%#####OX***:::",
"@@@@@:::::*****:.O###%#####OX**::                #######OX***:::",
"@@@@@:::::*****:.O###%#####OX**::                #######OX***:::",
"@@@@@:::::*****:.O###%#####OX**::                #######OX***:::",
"@@@@@::                ####OX**::                #%#####OX***:::",
"@@@@@::                ####OX**::                #%#####OX***:::",
"@@@@@::                ####OX**::                #%#####OX***:::",
"@@@@@::           ooooo####OX**&&ooo          ooo#%#####OX***:::",
"@@@@@::           o                o          o               ::",
"@@@@@::           o                ;;;;;;;;;;;;               ::",
"@@@@@::           o                ;;;;; ;;;;;;               ::",
"&&&&+&&           o                ;;;&&&&&&&&&               ::",
"&+&&&&&ooooooo    o                &&&&+&+++&&&oooooooo       ::",
"             o    o                &                  o       : ",
"             ;;;;;;                &                  o       : ",
"             ; ;;;;                &                  o       : ",
"             ;&&&&&                &                  o       : ",
"             &+++&&;;;;;;;;;;;;;;;;&                  o       : ",
"             &&&+&&;;;;;;; ;;;;;;;;&                  ;;;;;;;;& ",
"             &&&&&&&&&&&+++++++&&&&&                  ; ;;;;;;& ",
"             &&                    &oooooooooooooooooo&&+&&+&&& ",
"             &&                    &&                  +++++&&& ",
";;;;;;;;;;;;;&&                    &&                   &&&&&&& ",
";;;; ;;;;;;;;++                    &&                   +&&&&&&+",
"oooooooooooo&&&                    +&                   +       ",
"            &&&                    +&                   +       ",
"            &&&                    +&                   +       ",
"            &&&                    +&                   &       ",
"            &&&                    +&                   &       ",
"            &+&  o                 &&                   &       ",
"            &&&;;;;;;;;;;;;;;;;;;;;&&                   &       ",
"            &&&;;;;;;;;; ;;;;;;;;;;&&                   &       ",
"            &&&;;;;;;;;;  ;;;;;;;;;&&;;;;;;;;;;;;;;;;;;;&       ",
";;;;;;;;;;;;&&&&&&&&&&&&&&&&&&&+&&&&&;;;;;;;; ;;;;;;;;;;&;;;;;;;",
";; ;;;;;;;;;&&+&&&&+&&&&&&&&&+&&&&+++&;;;;;;;  ;;;;;;;;;&;;;;;;;"
};
